<svg xmlns="http://www.w3.org/2000/svg" width="1280" height="720" viewBox="0 0 1280 720">
  <rect width="1280" height="720" fill="#f5f5f4" />
  <rect x="56" y="40" width="1168" height="88" rx="28" fill="#ffffff" stroke="#e7e5e4" />
  <text x="96" y="94" fill="#0f172a" font-family="Arial, sans-serif" font-size="38" font-weight="700">
    Görsel İletişim Kartları
  </text>
  <rect x="56" y="156" width="1168" height="170" rx="28" fill="#ffffff" stroke="#e7e5e4" />
  <text x="96" y="206" fill="#0f172a" font-family="Arial, sans-serif" font-size="28" font-weight="700">
    Kategori Filtreleri
  </text>
  <rect x="96" y="232" width="360" height="56" rx="20" fill="#f5f5f4" stroke="#d6d3d1" />
  <text x="120" y="267" fill="#78716c" font-family="Arial, sans-serif" font-size="24">
    Kart ara...
  </text>
  <rect x="56" y="350" width="1168" height="250" rx="28" fill="#ffffff" stroke="#e7e5e4" />
  <g transform="translate(96 394)">
    <rect width="172" height="172" rx="32" fill="#ffffff" stroke="#d6d3d1" />
    <text x="86" y="86" text-anchor="middle" font-size="62">💧</text>
    <text x="86" y="132" text-anchor="middle" fill="#0f172a" font-family="Arial, sans-serif" font-size="26" font-weight="700">Su</text>
  </g>
  <g transform="translate(292 394)">
    <rect width="172" height="172" rx="32" fill="#ffffff" stroke="#d6d3d1" />
    <text x="86" y="86" text-anchor="middle" font-size="62">🍎</text>
    <text x="86" y="132" text-anchor="middle" fill="#0f172a" font-family="Arial, sans-serif" font-size="26" font-weight="700">Elma</text>
  </g>
  <g transform="translate(488 394)">
    <rect width="172" height="172" rx="32" fill="#ffffff" stroke="#d6d3d1" />
    <text x="86" y="86" text-anchor="middle" font-size="62">😊</text>
    <text x="86" y="132" text-anchor="middle" fill="#0f172a" font-family="Arial, sans-serif" font-size="26" font-weight="700">Mutlu</text>
  </g>
  <rect x="56" y="620" width="1168" height="64" rx="24" fill="#ffffff" stroke="#e7e5e4" />
  <text x="96" y="660" fill="#57534e" font-family="Arial, sans-serif" font-size="26">
    Kartlara dokunarak cümle oluşturun.
  </text>
</svg>
